<mxfile host="app.diagrams.net" agent="Mozilla/5.0 (Windows NT 10.0; Win64; x64) AppleWebKit/537.36 (KHTML, like Gecko) Chrome/123.0.0.0 Safari/537.36 OPR/109.0.0.0" version="24.7.5">
  <diagram id="R2lEEEUBdFMjLlhIrx00" name="Page-1">
    <mxGraphModel dx="1393" dy="1858" grid="1" gridSize="10" guides="1" tooltips="1" connect="1" arrows="1" fold="1" page="1" pageScale="1" pageWidth="850" pageHeight="1100" math="0" shadow="0" extFonts="Permanent Marker^https://fonts.googleapis.com/css?family=Permanent+Marker">
      <root>
        <mxCell id="0" />
        <mxCell id="1" parent="0" />
        <mxCell id="JhU57DJ20qQZNXVxEEHU-14" value="" style="shape=partialRectangle;connectable=0;fillColor=none;top=0;left=0;bottom=0;right=0;editable=1;overflow=hidden;whiteSpace=wrap;html=1;" parent="1" vertex="1">
          <mxGeometry x="250" y="330" width="30" height="30" as="geometry">
            <mxRectangle width="30" height="30" as="alternateBounds" />
          </mxGeometry>
        </mxCell>
        <mxCell id="JhU57DJ20qQZNXVxEEHU-18" value="Bank" style="swimlane;childLayout=stackLayout;horizontal=1;startSize=50;horizontalStack=0;rounded=1;fontSize=14;fontStyle=0;strokeWidth=2;resizeParent=0;resizeLast=1;shadow=0;dashed=0;align=center;arcSize=4;whiteSpace=wrap;html=1;" parent="1" vertex="1">
          <mxGeometry x="240" y="200" width="160" height="160" as="geometry" />
        </mxCell>
        <mxCell id="JhU57DJ20qQZNXVxEEHU-19" value="&lt;u&gt;Id: int&lt;/u&gt;&lt;div&gt;Name: nvarchar(50)&lt;/div&gt;&lt;div&gt;Link: nvarchar(200)&lt;/div&gt;&lt;div&gt;StartDate: date&lt;/div&gt;&lt;div&gt;EndDate: date&lt;/div&gt;&lt;div&gt;CurrentAmount: float&lt;/div&gt;&lt;div&gt;InterestRate: float&lt;br&gt;&lt;/div&gt;" style="align=left;strokeColor=none;fillColor=none;spacingLeft=4;fontSize=12;verticalAlign=top;resizable=0;rotatable=0;part=1;html=1;" parent="JhU57DJ20qQZNXVxEEHU-18" vertex="1">
          <mxGeometry y="50" width="160" height="110" as="geometry" />
        </mxCell>
        <mxCell id="JhU57DJ20qQZNXVxEEHU-20" value="Transaction" style="swimlane;childLayout=stackLayout;horizontal=1;startSize=50;horizontalStack=0;rounded=1;fontSize=14;fontStyle=0;strokeWidth=2;resizeParent=0;resizeLast=1;shadow=0;dashed=0;align=center;arcSize=4;whiteSpace=wrap;html=1;" parent="1" vertex="1">
          <mxGeometry x="640" y="200" width="160" height="160" as="geometry" />
        </mxCell>
        <mxCell id="JhU57DJ20qQZNXVxEEHU-21" value="&lt;u&gt;Id: int&lt;/u&gt;&lt;div&gt;Type: nvarchar(50)&lt;/div&gt;&lt;div&gt;Date: date&lt;/div&gt;&lt;div&gt;Other: nvarchar(200)&lt;/div&gt;&lt;div&gt;Amount: float&lt;/div&gt;&lt;div&gt;&lt;br&gt;&lt;/div&gt;" style="align=left;strokeColor=none;fillColor=none;spacingLeft=4;fontSize=12;verticalAlign=top;resizable=0;rotatable=0;part=1;html=1;" parent="JhU57DJ20qQZNXVxEEHU-20" vertex="1">
          <mxGeometry y="50" width="160" height="110" as="geometry" />
        </mxCell>
        <mxCell id="JhU57DJ20qQZNXVxEEHU-31" value="N" style="edgeStyle=none;shape=connector;rounded=0;orthogonalLoop=1;jettySize=auto;html=1;exitX=1;exitY=0.5;exitDx=0;exitDy=0;entryX=0;entryY=0;entryDx=0;entryDy=0;strokeColor=default;align=center;verticalAlign=middle;fontFamily=Helvetica;fontSize=11;fontColor=default;labelBackgroundColor=default;endArrow=none;endFill=0;" parent="1" source="JhU57DJ20qQZNXVxEEHU-22" target="JhU57DJ20qQZNXVxEEHU-21" edge="1">
          <mxGeometry relative="1" as="geometry" />
        </mxCell>
        <mxCell id="JhU57DJ20qQZNXVxEEHU-22" value="Relationship" style="shape=rhombus;perimeter=rhombusPerimeter;whiteSpace=wrap;html=1;align=center;" parent="1" vertex="1">
          <mxGeometry x="460" y="220" width="120" height="60" as="geometry" />
        </mxCell>
        <mxCell id="JhU57DJ20qQZNXVxEEHU-30" value="1" style="edgeStyle=none;shape=connector;rounded=0;orthogonalLoop=1;jettySize=auto;html=1;exitX=1;exitY=0;exitDx=0;exitDy=0;entryX=0;entryY=0.5;entryDx=0;entryDy=0;strokeColor=default;align=center;verticalAlign=middle;fontFamily=Helvetica;fontSize=11;fontColor=default;labelBackgroundColor=default;endArrow=none;endFill=0;" parent="1" source="JhU57DJ20qQZNXVxEEHU-19" target="JhU57DJ20qQZNXVxEEHU-22" edge="1">
          <mxGeometry relative="1" as="geometry" />
        </mxCell>
        <mxCell id="i-EfPjyqxrqwq9eCZ7NU-2" value="1" style="edgeStyle=orthogonalEdgeStyle;rounded=0;orthogonalLoop=1;jettySize=auto;html=1;exitX=0.5;exitY=0;exitDx=0;exitDy=0;entryX=0.5;entryY=1;entryDx=0;entryDy=0;endArrow=none;endFill=0;" parent="1" source="SrbXHr8n1rtsrGe3lEvS-1" target="i-EfPjyqxrqwq9eCZ7NU-1" edge="1">
          <mxGeometry relative="1" as="geometry" />
        </mxCell>
        <mxCell id="SrbXHr8n1rtsrGe3lEvS-1" value="User" style="swimlane;childLayout=stackLayout;horizontal=1;startSize=50;horizontalStack=0;rounded=1;fontSize=14;fontStyle=0;strokeWidth=2;resizeParent=0;resizeLast=1;shadow=0;dashed=0;align=center;arcSize=4;whiteSpace=wrap;html=1;" parent="1" vertex="1">
          <mxGeometry x="240" y="520" width="160" height="160" as="geometry" />
        </mxCell>
        <mxCell id="SrbXHr8n1rtsrGe3lEvS-2" value="&lt;u&gt;Id: int&lt;/u&gt;&lt;div&gt;FirstName: nvarchar(50)&lt;/div&gt;&lt;div&gt;LastName: nvarchar(50)&lt;/div&gt;&lt;div&gt;Email: nvarchar(100)&lt;/div&gt;&lt;div&gt;Password: nvarchar(50)&lt;/div&gt;" style="align=left;strokeColor=none;fillColor=none;spacingLeft=4;fontSize=12;verticalAlign=top;resizable=0;rotatable=0;part=1;html=1;" parent="SrbXHr8n1rtsrGe3lEvS-1" vertex="1">
          <mxGeometry y="50" width="160" height="110" as="geometry" />
        </mxCell>
        <mxCell id="i-EfPjyqxrqwq9eCZ7NU-3" value="N" style="edgeStyle=orthogonalEdgeStyle;shape=connector;rounded=0;orthogonalLoop=1;jettySize=auto;html=1;exitX=0.5;exitY=0;exitDx=0;exitDy=0;entryX=0.5;entryY=1;entryDx=0;entryDy=0;strokeColor=default;align=center;verticalAlign=middle;fontFamily=Helvetica;fontSize=11;fontColor=default;labelBackgroundColor=default;endArrow=none;endFill=0;" parent="1" source="i-EfPjyqxrqwq9eCZ7NU-1" target="JhU57DJ20qQZNXVxEEHU-19" edge="1">
          <mxGeometry relative="1" as="geometry" />
        </mxCell>
        <mxCell id="i-EfPjyqxrqwq9eCZ7NU-1" value="Relationship" style="shape=rhombus;perimeter=rhombusPerimeter;whiteSpace=wrap;html=1;align=center;" parent="1" vertex="1">
          <mxGeometry x="260" y="410" width="120" height="60" as="geometry" />
        </mxCell>
        <mxCell id="cizEQe3z-VEkMX1aqBmt-1" value="CSV-Translation" style="swimlane;childLayout=stackLayout;horizontal=1;startSize=50;horizontalStack=0;rounded=1;fontSize=14;fontStyle=0;strokeWidth=2;resizeParent=0;resizeLast=1;shadow=0;dashed=0;align=center;arcSize=4;whiteSpace=wrap;html=1;" vertex="1" parent="1">
          <mxGeometry x="240" y="-120" width="160" height="160" as="geometry" />
        </mxCell>
        <mxCell id="cizEQe3z-VEkMX1aqBmt-2" value="&lt;u&gt;Id: int&lt;/u&gt;&lt;div&gt;Type: nvarchar(100)&lt;/div&gt;&lt;div&gt;Date: nvarchar(100)&lt;/div&gt;&lt;div&gt;Other: nvarchar(100)&lt;/div&gt;&lt;div&gt;Amount: float(100)&lt;/div&gt;" style="align=left;strokeColor=none;fillColor=none;spacingLeft=4;fontSize=12;verticalAlign=top;resizable=0;rotatable=0;part=1;html=1;" vertex="1" parent="cizEQe3z-VEkMX1aqBmt-1">
          <mxGeometry y="50" width="160" height="110" as="geometry" />
        </mxCell>
        <mxCell id="cizEQe3z-VEkMX1aqBmt-11" value="1" style="edgeStyle=none;shape=connector;rounded=0;orthogonalLoop=1;jettySize=auto;html=1;exitX=0.5;exitY=1;exitDx=0;exitDy=0;entryX=0.5;entryY=0;entryDx=0;entryDy=0;strokeColor=default;align=center;verticalAlign=middle;fontFamily=Helvetica;fontSize=11;fontColor=default;labelBackgroundColor=default;endArrow=none;endFill=0;" edge="1" parent="1" source="cizEQe3z-VEkMX1aqBmt-9" target="JhU57DJ20qQZNXVxEEHU-18">
          <mxGeometry relative="1" as="geometry" />
        </mxCell>
        <mxCell id="cizEQe3z-VEkMX1aqBmt-9" value="Relationship" style="shape=rhombus;perimeter=rhombusPerimeter;whiteSpace=wrap;html=1;align=center;" vertex="1" parent="1">
          <mxGeometry x="260" y="90" width="120" height="60" as="geometry" />
        </mxCell>
        <mxCell id="cizEQe3z-VEkMX1aqBmt-10" value="1" style="edgeStyle=none;shape=connector;rounded=0;orthogonalLoop=1;jettySize=auto;html=1;exitX=0.5;exitY=1;exitDx=0;exitDy=0;entryX=0.5;entryY=0;entryDx=0;entryDy=0;strokeColor=default;align=center;verticalAlign=middle;fontFamily=Helvetica;fontSize=11;fontColor=default;labelBackgroundColor=default;endArrow=none;endFill=0;" edge="1" parent="1" source="cizEQe3z-VEkMX1aqBmt-2" target="cizEQe3z-VEkMX1aqBmt-9">
          <mxGeometry relative="1" as="geometry" />
        </mxCell>
      </root>
    </mxGraphModel>
  </diagram>
</mxfile>
